Coordinates
version=1
nRows=11
nColumns=63
inDegrees=yes

Units are S.I. units (second, meters, Newtons, ...)
If the header above contains a line with 'inDegrees', this indicates whether rotational values are in degrees (yes) or radians (no).

endheader
time	pelvis_tilt	pelvis_list	pelvis_rotation	pelvis_tx	pelvis_ty	pelvis_tz	hip_flexion_r	hip_adduction_r	hip_rotation_r	knee_angle_r	knee_angle_r_beta	ankle_angle_r	subtalar_angle_r	mtp_angle_r	hip_flexion_l	hip_adduction_l	hip_rotation_l	knee_angle_l	knee_angle_l_beta	ankle_angle_l	subtalar_angle_l	mtp_angle_l	L5_S1_Flex_Ext	L5_S1_Lat_Bending	L5_S1_axial_rotation	L4_L5_Flex_Ext	L4_L5_Lat_Bending	L4_L5_axial_rotation	L3_L4_Flex_Ext	L3_L4_Lat_Bending	L3_L4_axial_rotation	L2_L3_Flex_Ext	L2_L3_Lat_Bending	L2_L3_axial_rotation	L1_L2_Flex_Ext	L1_L2_Lat_Bending	L1_L2_axial_rotation	L1_T12_Flex_Ext	L1_T12_Lat_Bending	L1_T12_axial_rotation	Abs_r3	Abs_r2	Abs_r1	Abs_t1	Abs_t2	neck_flexion	neck_bending	neck_rotation	arm_flex_r	arm_add_r	arm_rot_r	elbow_flex_r	pro_sup_r	wrist_flex_r	wrist_dev_r	arm_flex_l	arm_add_l	arm_rot_l	elbow_flex_l	pro_sup_l	wrist_flex_l	wrist_dev_l
3.509091	1.777840	-1.338319	89.110082	0.131915	1.139976	0.053214	0.942979	0.943410	13.854665	10.274786	0.179329	33.596224	-16.111147	0.000000	-3.211848	0.515049	15.103049	1.359344	0.023725	33.042282	-14.603422	0.000000	-0.015122	-0.036431	-0.205747	-0.028083	-0.048454	-0.218607	-0.024844	-0.088579	-0.218607	-0.017283	-0.088579	-0.180029	-0.014042	-0.074291	-0.167170	-0.008641	-0.056432	-0.154311	-0.108014	-0.412118	-1.144305	0.000000	0.000000	5.393834	0.364848	24.450397	-55.897138	-82.493875	-16.756614	15.067876	11.789215	-13.528554	10.668110	-77.405070	-74.385394	-28.882149	8.055415	71.496671	5.278172	4.555539
3.527273	1.780725	-1.242867	89.378421	0.131432	1.140035	0.052817	0.875638	0.941331	13.666668	10.382045	0.181201	33.728336	-16.160500	0.000000	-3.295673	0.510717	15.222637	1.394927	0.024346	33.171650	-14.413596	0.000000	-0.021604	-0.047630	-0.279797	-0.040121	-0.063348	-0.297284	-0.035493	-0.115808	-0.297284	-0.024691	-0.115808	-0.244822	-0.020061	-0.097127	-0.227335	-0.012344	-0.073779	-0.209848	-0.154315	-0.538801	-1.556148	0.000000	0.000000	5.367479	0.496892	23.941281	-54.126781	-82.733786	-13.560012	14.812695	11.623041	-13.057183	10.427307	-79.805157	-74.568492	-22.687937	8.816792	65.051275	4.817270	4.505628
3.545455	1.765171	-1.147367	89.657563	0.131026	1.140090	0.052423	0.807777	0.925238	13.469518	10.491080	0.183104	33.872293	-16.207429	0.000000	-3.373414	0.518944	15.344665	1.428270	0.024928	33.308028	-14.216773	0.000000	-0.028073	-0.061770	-0.352463	-0.052134	-0.082154	-0.374492	-0.046121	-0.150188	-0.374492	-0.032084	-0.150188	-0.308405	-0.026068	-0.125961	-0.286376	-0.016041	-0.095682	-0.264347	-0.200521	-0.698755	-1.960293	0.000000	0.000000	5.299262	0.603449	23.413256	-52.263418	-82.907807	-10.366926	14.540163	11.350405	-12.640434	10.210211	-82.216727	-74.829250	-16.176800	9.555820	58.178068	4.312652	4.457019
3.563636	1.713955	-1.062881	89.939363	0.130707	1.140113	0.052028	0.743735	0.875749	13.267961	10.589898	0.184829	34.022825	-16.256209	0.000000	-3.435917	0.558177	15.444011	1.453834	0.025374	33.459032	-13.980971	0.000000	-0.033794	-0.079644	-0.421705	-0.062760	-0.105926	-0.448061	-0.055521	-0.193645	-0.448061	-0.038624	-0.193645	-0.368992	-0.031381	-0.162409	-0.342635	-0.019310	-0.123368	-0.316278	-0.241390	-0.900943	-2.345394	0.000000	0.000000	5.215051	0.676745	22.977590	-50.601550	-82.996206	-7.638699	14.310541	11.026986	-12.324514	10.018897	-84.931142	-75.372726	-7.086233	10.386298	48.344129	3.669065	4.273890
3.581818	1.641528	-0.991392	90.199649	0.130480	1.140128	0.051649	0.687559	0.807284	13.087544	10.682237	0.186440	34.157281	-16.314568	0.000000	-3.486853	0.613999	15.524634	1.461770	0.025513	33.607922	-13.735768	0.000000	-0.038322	-0.098701	-0.484538	-0.071167	-0.131272	-0.514822	-0.062959	-0.239981	-0.514822	-0.043798	-0.239981	-0.423971	-0.035586	-0.201271	-0.393687	-0.021897	-0.152888	-0.363404	-0.273728	-1.116524	-2.694856	0.000000	0.000000	5.087000	0.727538	22.705217	-48.928523	-83.019592	-4.923873	14.053128	10.626036	-12.017394	9.837010	-87.311511	-75.862316	0.555786	11.084586	40.028157	3.132832	4.093452
3.600000	1.551105	-0.937727	90.431795	0.130334	1.140122	0.051298	0.642220	0.722509	12.931558	10.768366	0.187943	34.268058	-16.374076	0.000000	-3.522645	0.685164	15.629535	1.449953	0.025306	33.734540	-13.542045	0.000000	-0.041344	-0.118086	-0.537425	-0.076780	-0.157054	-0.571014	-0.067925	-0.287114	-0.571014	-0.047252	-0.287114	-0.470247	-0.038392	-0.240801	-0.436658	-0.023624	-0.182915	-0.403069	-0.295318	-1.335813	-2.988997	0.000000	0.000000	4.923733	0.772291	22.617452	-47.415120	-82.962201	-2.373814	13.794090	10.164423	-11.708569	9.632185	-89.276755	-76.315538	6.695029	11.628190	33.315071	2.741313	3.894346
3.618182	1.441164	-0.907971	90.625137	0.130271	1.140086	0.050991	0.617416	0.619299	12.815081	10.852416	0.189410	34.355830	-16.430848	0.000000	-3.538668	0.774098	15.758253	1.418282	0.024754	33.825771	-13.408924	0.000000	-0.042100	-0.138127	-0.578434	-0.078183	-0.183709	-0.614586	-0.069165	-0.335841	-0.614586	-0.048116	-0.335841	-0.506130	-0.039094	-0.281668	-0.469978	-0.024056	-0.213958	-0.433826	-0.300713	-1.562517	-3.217077	0.000000	0.000000	4.757654	0.830020	22.709603	-46.076812	-82.819275	-0.123578	13.560758	9.814497	-11.419806	9.437218	-90.824952	-76.728280	11.253762	12.003935	28.285762	2.514608	3.661830
3.636364	1.329370	-0.904911	90.755456	0.130279	1.140011	0.050730	0.616694	0.515407	12.776979	10.927766	0.190725	34.416230	-16.497867	0.000000	-3.537254	0.866420	15.861194	1.367578	0.023869	33.885454	-13.309285	0.000000	-0.040469	-0.156858	-0.603642	-0.075155	-0.208621	-0.641369	-0.066486	-0.381384	-0.641369	-0.046252	-0.381384	-0.528186	-0.037579	-0.319864	-0.490459	-0.023124	-0.242972	-0.452731	-0.289065	-1.774404	-3.357273	0.000000	0.000000	4.616396	0.925095	22.934531	-44.775044	-82.661072	2.394127	13.313154	9.276110	-11.099262	9.275750	-92.158160	-77.111828	15.014745	12.250921	24.154717	2.462111	3.406049
3.654545	1.227672	-0.928944	90.830103	0.130316	1.139895	0.050530	0.641703	0.419117	12.784839	10.988963	0.191794	34.461148	-16.535577	0.000000	-3.519441	0.952253	15.969134	1.301412	0.022714	33.888504	-13.291735	0.000000	-0.036192	-0.172931	-0.612472	-0.067212	-0.229998	-0.650751	-0.059460	-0.420464	-0.650751	-0.041364	-0.420464	-0.535913	-0.033608	-0.352640	-0.497633	-0.020680	-0.267870	-0.459354	-0.258516	-1.956226	-3.406385	0.000000	0.000000	4.513189	1.045879	23.233145	-43.952261	-82.481792	4.352458	13.139252	9.000979	-10.816700	9.245507	-93.016899	-77.402884	16.773388	12.344659	22.268402	2.609807	3.201819
3.672727	1.152215	-0.970112	90.846736	0.130358	1.139759	0.050418	0.682708	0.346272	12.842669	11.032153	0.192547	34.480804	-16.558715	0.000000	-3.496961	1.017099	16.055949	1.225150	0.021383	33.837025	-13.342451	0.000000	-0.030544	-0.185134	-0.614351	-0.056723	-0.246229	-0.652748	-0.050181	-0.450136	-0.652748	-0.034909	-0.450136	-0.537557	-0.028363	-0.377526	-0.499160	-0.017453	-0.286773	-0.460763	-0.218172	-2.094278	-3.416834	0.000000	0.000000	4.453364	1.192664	23.563712	-42.983031	-82.515250	7.426165	12.836855	8.033956	-10.424274	9.281030	-93.465104	-77.515251	16.658802	12.292326	22.456750	2.911077	3.086295
3.690909	1.102453	-1.032334	90.794717	0.130384	1.139590	0.050410	0.746874	0.292405	12.949226	11.059672	0.193028	34.472710	-16.557845	0.000000	-3.465699	1.065397	16.106195	1.145655	0.019995	33.730507	-13.470018	0.000000	-0.023831	-0.191853	-0.597302	-0.044256	-0.255165	-0.634633	-0.039152	-0.466472	-0.634633	-0.027236	-0.466472	-0.522639	-0.022129	-0.391227	-0.485308	-0.013617	-0.297181	-0.447976	-0.170222	-2.170284	-3.322013	0.000000	0.000000	4.441734	1.348191	23.936014	-42.933783	-82.450596	8.511861	12.817254	7.903038	-10.209408	9.662724	-93.153288	-77.483888	14.336518	12.022083	25.051285	3.231449	3.053295
